<?xml version="1.0" encoding="UTF-8"?>
<svg width="80px" height="80px" viewBox="0 0 80 80" version="1.1" xmlns="http://www.w3.org/2000/svg" xmlns:xlink="http://www.w3.org/1999/xlink">
    <title>logo</title>
    <g id="Page-1" stroke="none" stroke-width="1" fill="none" fill-rule="evenodd">
        <g id="logo" transform="translate(2.482150, 2.470952)" fill-rule="nonzero">
            <path d="M30.3886283,35.3744524 L30.5481648,35.534925 C30.7097758,35.6996028 30.878215,35.8770021 31.0589239,36.068075 C31.3182042,36.3422257 31.5493514,36.589407 31.7553223,36.8339217 L31.865191,36.9671749 C33.1540801,38.5665458 33.3873715,40.2409777 33.3942093,48.8056072 L33.3942727,49.5354219 C33.3933513,51.1518775 33.3857983,52.9991271 33.3764942,55.1172859 C33.3323295,65.1719212 33.3187339,67.5618532 33.1197672,68.6450005 L33.1017247,68.7373428 C33.0986356,68.7522219 33.0955051,68.7668588 33.0923324,68.7812738 L33.0727849,68.8652619 C33.0493767,68.9605183 33.0238358,69.0468808 32.9959267,69.131285 L32.9714192,69.2033137 L32.9324109,69.3116814 L32.9048594,69.3855584 C32.9001621,69.3980474 32.8954117,69.410638 32.8906075,69.4233504 C32.0397422,71.6748133 30.1837071,73.5962313 28.0146602,74.4710594 C27.3219932,74.7504297 22.7948999,74.9463761 18.0375315,75.0156286 L17.1437063,75.0271182 L16.2497636,75.035575 C11.6398482,75.0713247 7.23662665,74.9830991 6.31681,74.7315594 C3.30121684,73.9068914 1.10171293,71.6863328 0.317246526,68.6745633 C0.128090414,67.948344 0.0151582747,60.5352256 0.000796647996,53.4060913 L0.000257479726,50.6463937 C0.0094395198,45.2178644 0.0807788946,40.5201601 0.224986956,39.8946297 C0.789157854,37.4474266 2.49837367,35.3186961 4.80300649,34.1929637 L6.17019399,33.5251414 L16.1988614,33.46795 C17.3755741,33.4612394 18.4402795,33.4554224 19.405876,33.4527559 L21.1033752,33.4519994 C27.6656777,33.4686876 28.7594396,33.7593261 30.3886283,35.3744524 Z M25.0178497,41.6306102 L8.41628715,41.6306102 L8.41628715,66.6306102 L25.0178497,66.6306102 L25.0178497,41.6306102 Z" id="Combined-Shape" fill="#000000"></path>
            <path d="M43.9883965,74.5167606 C41.4123653,73.2330711 40.9227168,70.0430789 42.9851368,67.980659 C44.3917247,66.5740731 44.1218379,66.5963387 58.9100137,66.6668113 L71.8060821,66.7282664 L72.7754571,67.227243 C75.2336426,68.4925711 75.7306524,71.7892469 73.7598946,73.7570184 C72.4579375,75.0570008 72.8001407,75.0290952 58.187834,75.0290952 L45.0164219,75.0290952 L43.9883965,74.5167606 Z" id="path2355-path" fill="#D97A00"></path>
            <path d="M44.7673204,58.1946356 C41.1972325,57.3979715 40.6678008,52.1960574 43.9883965,50.5413348 L45.0164219,50.0290046 L58.187834,50.0290046 C72.7907774,50.0290046 72.4597461,50.0021297 73.7522559,51.2946414 C76.0496856,53.5920711 74.9853164,57.3557273 71.7951934,58.2148992 C70.7837383,58.4873055 45.9955801,58.4687234 44.7673204,58.1946356 L44.7673204,58.1946356 Z" id="path2355-path" fill="#D97A00"></path>
            <path d="M43.5404258,34.1197508 L44.3872207,33.5251414 L57.9935508,33.4705301 C73.2226485,33.409407 72.624002,33.3597195 73.9182168,34.7922606 C75.7861504,36.8598406 75.112334,40.1150867 72.5781192,41.2663563 C71.6766075,41.6759031 45.3609805,41.8129461 44.3596231,41.4133074 C41.28075,40.1845379 40.8145508,36.0338328 43.5404258,34.1197508 Z" id="path2355-path" fill="#D97A00"></path>
            <path d="M42.6898833,-0.000923147536 L45.3518698,0.000815682176 C57.368181,0.0135825252 67.6819862,0.0928183773 68.4164395,0.248653131 C73.4039278,1.30688907 75.0178502,4.30921524 75.0178502,12.5290477 C75.0178502,20.7488797 73.4039278,23.7512059 68.4164395,24.8094422 C67.7042499,24.9605536 56.874259,25.0344125 44.4509498,25.0423003 L39.9606929,25.0423316 C23.9573949,25.0326658 7.03289311,24.9200862 6.31681,24.7272625 C1.44232856,23.4146766 0.017850237,20.6710906 0.017850237,12.595282 C0.017850237,4.34842305 1.43396352,1.61472676 6.372335,0.328444342 C7.12477575,0.132458414 22.7814685,0.0167643915 38.1819907,0.000859094459 L40.8939849,-0.000907885116 C41.4946879,-0.00106859036 42.0936254,-0.00107406978 42.6898833,-0.000923147536 Z M66.6194122,8.42748516 L8.41628715,8.42748516 L8.41628715,16.6306102 L66.6194122,16.6306102 L66.6194122,8.42748516 Z" id="Combined-Shape" fill="#000000"></path>
        </g>
    </g>
</svg>